<svg xmlns="http://www.w3.org/2000/svg" viewBox="0 0 960 740" width="960" height="740"><rect width="960" height="740" fill="#f5f0e8" rx="6"></rect><defs>
  <pattern id="grid" width="40" height="40" patternUnits="userSpaceOnUse">
    <path d="M 40 0 L 0 0 0 40" fill="none" stroke="#d6cfc3" stroke-width="0.5"></path>
  </pattern>
  <filter id="paper-texture" x="0" y="0" width="100%" height="100%">
    <feTurbulence type="fractalNoise" baseFrequency="0.04" numOctaves="5" stitchTiles="stitch" seed="2" result="coarse"></feTurbulence>
    <feTurbulence type="fractalNoise" baseFrequency="0.8" numOctaves="4" stitchTiles="stitch" seed="7" result="fine"></feTurbulence>
    <feMerge result="combined"><feMergeNode in="coarse"></feMergeNode><feMergeNode in="fine"></feMergeNode></feMerge>
    <feColorMatrix type="saturate" values="0" in="combined" result="gray"></feColorMatrix>
    <feBlend in="SourceGraphic" in2="gray" mode="multiply"></feBlend>
  </filter>
  <filter id="paper-stain" x="0" y="0" width="100%" height="100%">
    <feTurbulence type="fractalNoise" baseFrequency="0.015" numOctaves="3" stitchTiles="stitch" seed="12" result="stain"></feTurbulence>
    <feColorMatrix type="matrix" values="0 0 0 0 0.85  0 0 0 0 0.78  0 0 0 0 0.65  0 0 0 0.15 0" in="stain" result="tinted"></feColorMatrix>
    <feBlend in="SourceGraphic" in2="tinted" mode="multiply"></feBlend>
  </filter></defs><rect width="960" height="740" fill="url(#grid)" opacity="0.3"></rect><rect width="960" height="740" fill="#ede4d3" opacity="0.5" filter="url(#paper-stain)"></rect><rect width="960" height="740" fill="#f5f0e8" opacity="0.35" filter="url(#paper-texture)"></rect><text x="480" y="36" font-family="'Segoe UI', 'Inter', Helvetica, Arial, sans-serif" fill="#1a1a2e" font-size="22" text-anchor="middle" font-weight="700" letter-spacing="0.5">CargoBay Architecture</text><text x="32" y="68" font-family="'Segoe UI', 'Inter', Helvetica, Arial, sans-serif" fill="#78716c" font-size="10" text-anchor="start" font-weight="600" letter-spacing="1.5">CLIENTS</text><g><path d="M32.109983134537195 74.30820334514476 C360.8463367602694 73.43646579201447, 689.9123043793801 73.758594486538, 928.058138045006 74.103001003764 M32.08807519889928 74.11473739198605 C366.27933435015024 72.61739069725101, 700.9666299090374 72.7094758980304, 927.8715594521021 73.92233736981952" stroke="#a8a29e" stroke-width="0.6" fill="none" stroke-dasharray="6 4"></path></g><g><path d="M200.96054837546458 87.69421024048036 L398.6368755538289 86.9404957039261 L400.4516737642467 141.78604839702047 L201.614747208113 145.74389134112573" stroke="none" stroke-width="0" fill="#7c3aed"></path><path d="M198.5912871875429 85.4710641584354 C248.66132527140476 86.93601476875031, 296.0544663191173 84.33135185319634, 401.68036053634756 85.33509930825578 M199.945930994131 84.95426365726587 C260.2390539946559 83.46494291177832, 318.3100117268106 82.92558144536464, 399.1533654260944 85.65649315871741 M399.894889674029 84.20620503373739 C400.07187710447596 98.79812928773062, 398.18333190471276 111.17653945144563, 400.30611490232366 145.93014980559556 M400.77098956514476 85.86078439947715 C400.1995449055523 104.72093169062644, 400.1494850467001 121.5689931836058, 400.23748834075735 142.9788809681322 M398.5570018024427 142.58669211924857 C352.1468024514547 139.67322989999704, 300.5670185246889 139.27750915628434, 201.6500287475751 145.86549212211204 M400.32527003691723 143.5145124471605 C343.54754559649314 140.41105038559928, 288.14463261759494 140.57626288245314, 201.00460072845797 144.70387576018783 M200.13251339807843 143.67734006356002 C200.1393799899543 127.848732973034, 197.96050287352253 112.91678160279545, 202.2435706872295 83.90148196024036 M201.1044833940458 144.27369433516634 C198.94793208597574 128.44123209336732, 199.79549819595425 113.21937517936496, 200.752314469446 86.22164961010243" stroke="#6d28d9" stroke-width="2" fill="none"></path></g><text x="300" y="112" font-family="'Segoe UI', 'Inter', Helvetica, Arial, sans-serif" fill="#fff" font-size="14" text-anchor="middle" font-weight="600">GUI App</text><text x="300" y="130" font-family="'Segoe UI', 'Inter', Helvetica, Arial, sans-serif" fill="#ede9fe" font-size="11" text-anchor="middle">Tauri v2 + React / TS</text><g><path d="M539.480213378792 84.67933337027189 L738.0727710356144 85.67563112546128 L740.4051825808725 143.03194697375278 L541.0490360815584 142.09491284292844" stroke="none" stroke-width="0" fill="#7c3aed"></path><path d="M539.5786259460284 84.2919355863152 C606.2933755786013 87.98350131317343, 673.5443238031886 88.34623893223532, 738.8824732559781 87.1347712647783 M539.5211042411016 85.73323936746522 C599.3126061729979 84.48040637404931, 659.586947364406 84.1925540521196, 740.9829240070742 85.33020956525175 M739.0355654483177 86.29127217876827 C741.2532078963322 100.56385675874641, 739.5576502728287 116.68940971195077, 740.0535970206538 145.94101710479688 M740.1341979510288 85.3891209733523 C739.6729008917385 99.57645739958215, 741.0877118207497 111.27718247522901, 740.21216473813 143.54805062172014 M742.1208001997722 142.26265600201455 C681.4892767206973 147.75710519558487, 619.2985025998486 145.15753076982696, 540.1309762273805 143.91327398520463 M739.8283584902972 143.46416841280262 C679.1949750313117 142.46361447766458, 618.9790856309531 142.6166858157335, 540.3438038079645 144.5927908951357 M537.9485158030856 145.5915817893925 C542.1725813385596 130.14517010772494, 541.186626077101 114.56311675979605, 541.2219068492749 83.91588003270762 M538.909989676039 144.64211289879583 C540.3500604797769 128.70613727429867, 541.2912388062905 110.20852577815728, 541.0882779363708 86.2473569726858" stroke="#6d28d9" stroke-width="2" fill="none"></path></g><text x="640" y="112" font-family="'Segoe UI', 'Inter', Helvetica, Arial, sans-serif" fill="#fff" font-size="14" text-anchor="middle" font-weight="600">CLI</text><text x="640" y="130" font-family="'Segoe UI', 'Inter', Helvetica, Arial, sans-serif" fill="#ede9fe" font-size="11" text-anchor="middle">Rust / clap + completions</text><text x="32" y="174" font-family="'Segoe UI', 'Inter', Helvetica, Arial, sans-serif" fill="#78716c" font-size="10" text-anchor="start" font-weight="600" letter-spacing="1.5">PROTOCOL</text><g><path d="M32.10072958024938 180.02473231423505 C352.72182019399685 180.5643825728222, 672.8031635330673 180.48037189489992, 928.1842119437924 179.72880256208506 M32.05341275438209 180.0522954321703 C317.7248952847702 180.1714396290652, 603.4483719808479 180.25731428641748, 927.918407757419 180.11544649885815" stroke="#a8a29e" stroke-width="0.6" fill="none" stroke-dasharray="6 4"></path></g><g><path d="M56.397016972992276 191.85570122907606 L266.5580387567649 195.63872244178634 L263.50608780125737 250.369318268882 L56.43003851096651 250.15225267985616" stroke="none" stroke-width="0" fill="#0891b2"></path><path d="M53.13774662406481 195.352822928909 C104.45028836853854 194.92019064502574, 151.63951062014698 195.7747649501437, 263.03757805926324 194.97038691493165 M55.93287297114607 193.15306111911585 C118.14837017129621 196.42004906243125, 179.5731366043719 194.7140795663423, 265.04623868339206 195.01468192071252 M263.25572821810107 195.81111754590782 C264.7865190515101 213.50488997420564, 264.78204550033536 233.80197560535595, 264.7510976899714 251.2836815144113 M264.91242318529225 194.46968119919703 C266.4879463059807 213.28013756652183, 266.00613437083445 233.48831800802853, 265.86957543302475 248.88627032193534 M263.78891336245044 251.8268926352252 C193.4319495457993 247.96702758703177, 126.12200513018797 248.11915471097177, 55.978738692867054 249.8430226359011 M264.50134372823646 250.0199871130298 C210.8021609521659 251.1043399830684, 158.10466391450464 249.13164926458577, 55.62345351462417 250.0958569684862 M53.64886969581871 248.0048331088232 C55.348092448468655 230.36773135414992, 54.64344558127659 206.44045455627503, 56.79895986818396 195.5149051249643 M55.23391815656086 249.02880221999442 C54.36696776955374 239.13269988629062, 55.22220439624095 227.32638846316385, 54.63816944892517 194.13367576591097" stroke="#0e7490" stroke-width="2" fill="none"></path></g><text x="160" y="218" font-family="'Segoe UI', 'Inter', Helvetica, Arial, sans-serif" fill="#fff" font-size="14" text-anchor="middle" font-weight="600">bollard</text><text x="160" y="236" font-family="'Segoe UI', 'Inter', Helvetica, Arial, sans-serif" fill="#cffafe" font-size="11" text-anchor="middle">Docker SDK</text><g><path d="M334.9248753036622 192.6923317966292 L546.9052728506979 196.0973307729404 L544.0806390390392 250.24115973250733 L336.5559484857647 250.05521365889624" stroke="none" stroke-width="0" fill="#0d9488"></path><path d="M334.98819302714253 192.8804855638745 C417.61744127428614 198.31885206119296, 502.6278345583665 196.1162176706, 543.0343182818121 195.674367813564 M334.0248628323938 194.9538617029803 C415.08039081167846 191.99461236666855, 493.81548702141345 192.39200772301058, 544.1873622116958 194.59235542195725 M545.0514746792122 192.04015729723332 C542.5196615817767 215.43479433612308, 543.113350573476 239.2142008626059, 544.5172067243279 251.83465858053302 M544.2688587753069 194.12078721381388 C544.5853650798248 210.26564479438198, 545.755944861288 229.02700350334987, 544.7172408953818 249.74612222309858 M545.6535818334781 249.12225140868 C498.35835125523613 248.74886394319356, 454.86611413869286 249.67256592955496, 335.0871635583115 251.9246365487582 M545.9215963204016 249.25199241545224 C461.22180320385786 249.83934730350362, 379.9150897818594 249.70673724008662, 336.00964920703916 249.65214559173168 M336.52035844733325 249.95902472447685 C334.0930731875536 235.7676636082345, 337.03957527496226 217.22842178042492, 334.7022555116607 192.13831143495136 M336.1259715249363 251.01464112377283 C333.85313980848053 235.96316798661294, 335.2948710167977 222.84695515658032, 333.84410384517224 193.81746812780477" stroke="#0f766e" stroke-width="2" fill="none"></path></g><text x="440" y="218" font-family="'Segoe UI', 'Inter', Helvetica, Arial, sans-serif" fill="#fff" font-size="14" text-anchor="middle" font-weight="600">gRPC (tonic)</text><text x="440" y="236" font-family="'Segoe UI', 'Inter', Helvetica, Arial, sans-serif" fill="#ccfbf1" font-size="11" text-anchor="middle">VM operations</text><g><path d="M616.0584279513366 195.7382031954872 L825.3750526088041 193.86304694420215 L823.7692713683812 247.6471103290323 L615.588004668459 249.53761347503428" stroke="none" stroke-width="0" fill="#2563eb"></path><path d="M616.6257022698255 195.11106192874036 C666.3806187826185 195.47210262461428, 714.3925905131887 193.26643533480205, 825.549966205472 193.05524129874797 M616.0593769760424 194.27694703999063 C689.9390095574861 194.79590346610908, 763.4371393432849 194.85301609828852, 825.2940447273317 193.22855924746818 M826.8754024865075 192.99630600244498 C825.9848344642276 215.703824338095, 824.2010536258025 234.29408674596695, 822.6733950641518 248.00766258384635 M824.5312798197298 194.25329876768077 C827.0024598850451 211.09567707673418, 824.7927861287676 230.46533591362524, 824.1441538381835 250.26781728882176 M826.627498223599 251.86124557612845 C771.4791874493525 249.81779868439267, 721.1167999923637 250.22887063195768, 613.4298426545892 248.06687448632388 M825.7457732850177 250.86244454953967 C781.2877715011707 250.47191933563465, 737.583601078892 250.20708907766942, 615.4766849180352 249.72445035903482 M616.1716610929342 251.37905614188833 C613.0536607674751 233.1115699911397, 615.6653049575297 209.68427211397827, 615.3637889356456 191.9368222831424 M615.4186726610917 250.0747251050788 C615.800633232017 231.2207455958901, 613.661940587426 211.95373800235313, 614.8924340603899 193.1508369410204" stroke="#1d4ed8" stroke-width="2" fill="none"></path></g><text x="720" y="218" font-family="'Segoe UI', 'Inter', Helvetica, Arial, sans-serif" fill="#fff" font-size="14" text-anchor="middle" font-weight="600">kubectl</text><text x="720" y="236" font-family="'Segoe UI', 'Inter', Helvetica, Arial, sans-serif" fill="#dbeafe" font-size="11" text-anchor="middle">JSON output parsing</text><g><path d="M250 144 C228.90870633161072 164.63698700130166, 194.4336741104655 177.19249505892296, 174.03926645691627 189.33325784898855 M250.04917581616692 144.7487744486791 C229.77310527337437 163.46970409341708, 194.523107182076 178.33025623083202, 175.94278379664564 191.084974155126" stroke="#0891b2" stroke-width="2.2" fill="none"></path></g><g><path d="M174.82866792420577 189.71572541268154 L180.0525943320839 181.63158511347183 L185.05217983054206 188.49033828519453" stroke="none" stroke-width="0" fill="#0891b2" fill-rule="evenodd"></path><path d="M174.71708745977216 190.39236886766682 C176.88353606662466 187.4107202240363, 179.3385516781721 183.8337628430114, 180.6095604285949 181.82725742144476 M175.0716611753068 190.1843752302486 C176.87294796228989 187.56768740633333, 178.24496625328914 185.126956971488, 180.93816057728648 181.7192673873626 M181.09869238359116 181.72665987813878 C181.495711117798 183.53435979177286, 182.92242629819984 185.48191061184107, 185.2869075038141 188.84159512292305 M180.71586228448868 181.8833982745903 C182.26529146658666 183.89612839392208, 183.40322524319836 186.1445345232781, 184.7895733604478 188.4242815968965 M184.62321395659626 189.0024761198756 C181.69506300678322 188.49194600438463, 179.76323949557369 189.80559093880103, 175.1443292664033 189.6376753396597 M185.12502571453578 188.5851042281309 C182.69651878488997 188.8704094251542, 180.64905767012675 189.04284988734443, 175.0584206716523 190.13981606948704" stroke="#0891b2" stroke-width="1" fill="none"></path></g><g><path d="M340 144 C370.1832317778726 164.16566055208088, 409.49128788815034 178.34238276098495, 429.86982333142305 190.25236185020506 M339.1703928352152 143.1850003236012 C370.9139641767294 164.60619781356877, 411.322769877963 178.2303688868223, 430.9206821169234 190.51134945105332" stroke="#0d9488" stroke-width="2.2" fill="none"></path></g><g><path d="M430.1299959867329 190.31386578383706 L420.8688198675734 187.6986902676386 L425.04836335618234 181.9270933483456" stroke="none" stroke-width="0" fill="#0d9488" fill-rule="evenodd"></path><path d="M430.2572003076249 190.0797443710263 C426.67755750150576 189.48629671740557, 424.52850144493505 189.4162872038526, 420.1528225636072 189.03289578580188 M429.9520963733275 189.85936288404815 C427.12448790508955 189.75085108149167, 424.5553841784117 189.14933386987582, 419.8869995927927 188.59653386903602 M419.76347321847413 188.63472802372294 C420.7743526143952 187.10431931584128, 422.04512942482603 184.88000816486027, 424.48261759538093 182.29010871504065 M419.9536881151879 188.74505306144096 C421.369956720678 186.15195982752735, 423.0032356532298 183.79854479303094, 424.1499412659477 181.98691160398704 M423.7822676439659 182.0563315900825 C425.8541795849846 184.82744643057526, 428.1514503843852 188.19568969036723, 430.07393291548766 189.78774717011854 M424.0166951370356 181.97498513235524 C425.4168416531983 183.68911920657064, 426.64119811558857 185.45691546243856, 430.0097577427742 190.11661606180937" stroke="#0d9488" stroke-width="1" fill="none"></path></g><g><path d="M580 144 C471.14754107143204 167.8847427225584, 281.10128998384454 179.22176933235633, 199.24149942591345 190.9896949002736 M580.266019422447 142.96557101145925 C470.2323885410158 167.69203830858697, 278.7309694199702 179.2350952892567, 199.44234609216053 192.32452833879196" stroke="#0891b2" stroke-width="1.2" fill="none" stroke-dasharray="6 4"></path></g><g><path d="M199.4 192.3 L208.5 187.2 L206.8 194.8" stroke="none" stroke-width="0" fill="#0891b2" fill-rule="evenodd"></path><path d="M199.4 192.3 C202.5 190.1, 205.3 188.4, 208.5 187.2 M199.4 192.3 C202.5 190.1, 205.3 188.4, 208.5 187.2 M208.5 187.2 C207.9 189.5, 207.2 192.1, 206.8 194.8 M208.5 187.2 C207.9 189.5, 207.2 192.1, 206.8 194.8 M206.8 194.8 C204.8 193.8, 202.1 193.0, 199.4 192.3 M206.8 194.8 C204.8 193.8, 202.1 193.0, 199.4 192.3" stroke="#0891b2" stroke-width="1" fill="none"></path></g><g><path d="M630 144 C590.2855777564904 162.8096089994667, 499.7577311441438 177.80168763767674, 459.93318461283764 189.96592614378187 M629.2770670630897 143.69018612669296 C590.385598840903 165.27914113023704, 499.10162637629145 178.5080112817781, 459.80693409700206 190.8628335839054" stroke="#0d9488" stroke-width="2.2" fill="none"></path></g><g><path d="M460.50885907266115 189.88619375708706 L467.1276525798327 184.388105041785 L469.5922096658167 190.43783195755296" stroke="none" stroke-width="0" fill="#0d9488" fill-rule="evenodd"></path><path d="M460.16847781737135 189.88545008226416 C462.58191239973286 187.81344401517703, 464.90503991063406 185.3509857241038, 467.333470647246 183.26432846936345 M459.9272653642701 189.8283494367368 C462.29197979423077 188.29959173010974, 464.6455137084487 186.26619308489666, 467.55686050519836 183.7377269586874 M467.83458601953413 183.74125962304328 C468.10176278365094 185.74710387316475, 469.5457640642986 188.71014579605907, 469.66898236597683 191.28843842808487 M467.65009230751394 183.65834973481083 C468.62373940159915 186.15303648113482, 468.9791060521351 188.41054274060394, 469.78511929029094 191.02944291058208 M470.17938838679447 190.7492509528797 C466.79900576628387 190.35046722477486, 464.2855769286135 190.02782414981138, 460.10380004246167 190.49454276442168 M469.74953270514277 191.3044036609682 C467.72518172574684 190.91247875128016, 465.63646340644874 190.70140526219942, 460.15746102583273 190.1043268325341" stroke="#0d9488" stroke-width="1" fill="none"></path></g><g><path d="M400 144 C469.88027208518594 155.275217424769, 659.1184169228281 154.61424024082876, 700.2352601727563 189.86345389457787 M400.5445241360655 144.28721421632358 C468.85292241314414 155.30357999805372, 659.1174551447401 156.32844237203054, 699.8043793668293 190.3446938240305" stroke="#2563eb" stroke-width="2.2" fill="none" stroke-dasharray="6 4"></path></g><g><path d="M700.0635026660085 189.41515438694415 L690.5075310569067 187.22979103994007 L696.6184478039731 181.07408266963196" stroke="none" stroke-width="0" fill="#2563eb" fill-rule="evenodd"></path><path d="M700.2243828451035 190.14530311817933 C697.9312969148227 189.5597515692575, 695.7966635348498 188.19291386177875, 690.5353785650831 187.14659966581604 M699.9375130331405 190.14990405926144 C697.5220886113183 189.14543860854093, 694.7003326094472 188.18503959323607, 690.6912620247014 186.9344000529952 M690.1467771182334 186.52382622317768 C692.3980103963167 184.7850347197823, 694.0316627119656 183.03904368643924, 695.3541158699545 181.2446783867194 M690.504340004557 186.99410421701987 C692.384215627981 185.05280544131602, 693.9539508880316 182.95844392435663, 695.6987477285687 180.87547673341857 M696.1139917417489 180.8910417195283 C697.118106998105 183.46914370174554, 698.490603782481 186.00634092039195, 700.2579600055277 190.0438341415152 M695.5598627671204 180.8309797572811 C696.888348484252 183.39481626377153, 698.0259554683266 185.94140221658347, 700.2458792170821 189.76890974473116" stroke="#2563eb" stroke-width="1" fill="none"></path></g><g><path d="M694.123551949488 142.99287010521616 C699.4980505957317 153.55153020819535, 702.3290999725552 163.91677205009785, 710.3472105976883 190.07547753364972 M695.3689876096747 144.5946805078259 C699.9228261914477 158.09174897764208, 703.9174913000907 173.00105861022848, 709.5312535475389 190.4352774189836" stroke="#2563eb" stroke-width="2.2" fill="none"></path></g><g><path d="M709.709280604233 189.43196339379844 L704.0467691405834 182.10460312660305 L710.0673109737031 179.90482821478608" stroke="none" stroke-width="0" fill="#2563eb" fill-rule="evenodd"></path><path d="M709.8383476459251 190.04845709775938 C708.0563102573014 187.0693467169922, 705.3116103226652 184.91934850140908, 703.5172597821814 182.938101712425 M709.8262561546985 190.03590280261622 C708.157629267034 187.8698934849927, 706.0555469354679 185.56791073861834, 703.6235682382888 182.4015163718478 M703.6379532969704 182.2135140032244 C705.1468806926025 181.76054549363747, 707.1041305100742 180.90166534690425, 711.2288986091256 180.18205162542336 M703.3182607093829 182.54641533878115 C705.2242779821702 182.04122842762206, 706.7649501820764 181.4617838858093, 710.7121137500069 179.8883691198007 M711.1390443121396 180.35509560993077 C710.7538018936259 182.03005573216493, 710.5925774215555 184.7146711991146, 710.1415459836447 190.09131834075248 M710.895063447862 180.21275160205258 C710.7637185396078 184.0316456100017, 710.2478253174244 187.47894947792713, 710.0090849665188 190.07782663497707" stroke="#2563eb" stroke-width="1" fill="none"></path></g><text x="32" y="278" font-family="'Segoe UI', 'Inter', Helvetica, Arial, sans-serif" fill="#78716c" font-size="10" text-anchor="start" font-weight="600" letter-spacing="1.5">SERVICES</text><g><path d="M31.803731314168235 284.17762015034765 C329.9772199072661 285.1474840562934, 627.1095786826052 285.1830378346543, 927.956572784562 283.82709182028907 M32.03548412117452 284.14490198299916 C272.5357685277525 282.794542764043, 513.0990857488231 282.7355524242084, 928.0085148043967 283.9257982567809" stroke="#a8a29e" stroke-width="0.6" fill="none" stroke-dasharray="6 4"></path></g><g><path d="M57.360254546359876 297.136437655188 L265.1271700581226 296.65224001842455 L266.7043962810671 359.2909113247074 L54.311483873931174 357.7996216084028" stroke="none" stroke-width="0" fill="#0891b2"></path><path d="M56.17594413613721 296.6885090555596 C138.06296743190453 297.4270598287162, 219.0727138978515 297.6220846036642, 263.11308551464117 297.56162201383125 M54.937232050635 297.36142689599365 C130.19569806198226 297.5312018263193, 205.39682928821534 296.9268872023165, 265.80133525499537 298.44026446141527 M267.06908849309565 299.1056681849469 C262.67925295757317 312.9609434795039, 264.2183113644282 326.5905976631941, 262.6424594963209 357.7840948887918 M264.7535205448852 298.3669242888425 C265.4595501118381 313.33278912689946, 264.40194887117747 328.6171579906631, 265.5375151812945 359.7344399472147 M264.6736558002509 361.93302622968326 C218.48738709334148 358.01168339894923, 173.1024830445762 360.65862127452465, 54.83739973607931 360.5040161289785 M265.75663429852904 360.7188779649242 C182.42881190095127 360.0216072847138, 101.07626465330797 360.31366208695215, 55.43227975388546 360.0380412081841 M55.92686438354631 359.0095001333335 C52.717977096569896 342.96003611338443, 56.32868294508117 323.97144801884446, 57.148219781706814 296.2316536914177 M53.9735976226865 359.3211419709209 C54.211027671731465 338.8087910316662, 54.16283481158649 319.8756358557708, 56.069024226995886 298.66482733645915" stroke="#0e7490" stroke-width="2" fill="none"></path></g><text x="160" y="325" font-family="'Segoe UI', 'Inter', Helvetica, Arial, sans-serif" fill="#fff" font-size="14" text-anchor="middle" font-weight="600">Docker Daemon</text><text x="160" y="345" font-family="'Segoe UI', 'Inter', Helvetica, Arial, sans-serif" fill="#cffafe" font-size="11" text-anchor="middle">containers, images, volumes</text><g><path d="M335.75604178152764 297.483007509472 L544.9069845479909 297.22578732778385 L546.1973006659568 361.77795308173614 L337.0317797958863 361.37364691749116" stroke="none" stroke-width="0" fill="#0d9488"></path><path d="M335.63522171806255 296.4619468138206 C401.91085243095733 297.61217697810434, 469.26695087757105 299.04810565627236, 546.5691715907742 298.68575421278 M335.6014943210604 297.59447374141405 C398.2250939656103 296.6561860946554, 461.3777016499452 296.2590777793862, 544.1498519170151 297.28084733512196 M546.2533962629374 295.73611126248767 C544.4131772666695 320.22387726346994, 543.3947807379631 342.39071074504477, 544.1501450149641 358.90961142231674 M544.432765518602 297.3289588399236 C545.3327640807662 312.19999421688397, 545.4548518962132 329.56237722311147, 544.1691210501226 361.06802422514716 M546.2511648330108 358.4410426195824 C499.4415277049057 360.29934956075004, 452.1548615274194 356.97120451296007, 334.5182795218861 359.64045262642094 M545.1597953194952 360.8718788506332 C500.3916183040128 357.99273224662363, 455.53964617488333 358.79634376548853, 334.43678885424185 359.7819930279522 M336.4911379527405 359.73568459847667 C335.9879154118776 340.0414607888613, 335.3071716006816 316.9145518274514, 336.06825715775454 297.51176395108797 M335.33963052245235 360.6396586749666 C334.9690367431839 337.6090996605493, 335.5964467491361 317.2900520323364, 335.00211741621973 299.0420562706722" stroke="#0f766e" stroke-width="2" fill="none"></path></g><text x="440" y="325" font-family="'Segoe UI', 'Inter', Helvetica, Arial, sans-serif" fill="#fff" font-size="14" text-anchor="middle" font-weight="600">CargoBay Daemon</text><text x="440" y="345" font-family="'Segoe UI', 'Inter', Helvetica, Arial, sans-serif" fill="#ccfbf1" font-size="11" text-anchor="middle">Rust / tokio / gRPC server</text><g><path d="M613.5998662570788 298.26959732800293 L826.4939808051206 297.6254185753139 L823.188217013252 362.1951802394215 L616.8216591136588 361.71540974219005" stroke="none" stroke-width="0" fill="#2563eb"></path><path d="M615.9393855802787 297.29945749649505 C667.1257061345868 296.59323261594284, 715.6325159861209 295.72858223133784, 825.2976019966122 299.1551465571878 M615.6125522934209 297.0070963562921 C661.3547891389254 296.64820676309955, 707.1773528331686 298.20389298679555, 825.8513566197918 298.82483655094217 M822.7794258310574 297.76088542340335 C822.3083560101453 313.2712007755819, 821.9128621142767 324.203632834378, 826.4272079744389 359.3939420096903 M824.9102085368154 299.1316301478962 C824.9213200973824 317.8844119326996, 825.1699837374426 338.61312993922843, 825.5264498611851 359.8027493393731 M826.1992955951177 359.06845615689946 C750.6450956580245 363.7072996001061, 676.204310837444 362.1656457640174, 616.9703725735379 359.4497857767835 M824.3072542216921 359.7719567964697 C772.4123301703395 358.71919338733176, 721.4711032058266 358.258933121678, 615.71309774572 360.8509385883921 M615.5091450727416 357.9704632246198 C615.2361264055631 334.13714426622874, 612.4290952622974 313.1475329381933, 616.722633487459 296.3084191391607 M614.0662148094307 359.2774554732188 C613.8567824371169 337.6305121698661, 614.2964195549524 316.38131665742736, 614.0597173420873 298.6187252940062" stroke="#1d4ed8" stroke-width="2" fill="none"></path></g><text x="720" y="325" font-family="'Segoe UI', 'Inter', Helvetica, Arial, sans-serif" fill="#fff" font-size="14" text-anchor="middle" font-weight="600">K8s API Server</text><text x="720" y="345" font-family="'Segoe UI', 'Inter', Helvetica, Arial, sans-serif" fill="#dbeafe" font-size="11" text-anchor="middle">pods, services, deployments</text><g><path d="M160.1309909073412 250.1814811519896 C160.2617161560982 260.63143965576955, 160.56505949721594 270.8414014189096, 159.063097550128 294.02759411588016 M159.2375780623887 249.5088222064871 C159.95156462138192 264.12147269939686, 160.43518097944371 280.00562325676583, 160.39679273027366 293.9062685890948" stroke="#0891b2" stroke-width="2.2" fill="none"></path></g><g><path d="M159.19347024104758 294.7037136762678 L156.54376611036483 284.97695895746716 L163.565748588805 284.6796578456232" stroke="none" stroke-width="0" fill="#0891b2" fill-rule="evenodd"></path><path d="M160.03257591406924 294.15576683596714 C158.87345255360836 291.0283805851783, 156.91164704734464 287.2779550228654, 155.8304257201443 285.24172908027293 M159.75516009060084 294.00394219889296 C158.49470793676306 290.69002463705374, 157.090297367872 286.740718724909, 156.03538855463387 284.86666687609505 M156.27661907509813 285.04055829527323 C158.07940877776673 285.06393593443227, 159.41105514460267 284.78063132377736, 163.67235091843474 284.46745554547607 M156.30000834535048 284.84684170024036 C158.55277028013765 284.95602215896434, 160.7212718746948 284.7240972904683, 163.80191719193456 284.7825224168595 M163.46815729892975 284.3279367532422 C162.70696049673026 287.6260524777372, 162.21113928619678 289.6675808392948, 159.69663624940833 293.59082158204427 M163.77340770756848 284.76982583839094 C162.49140393835742 287.7980680233515, 161.18319767672185 291.0600556122753, 160.15188902692907 294.1650759168386" stroke="#0891b2" stroke-width="1" fill="none"></path></g><g><path d="M438.899397260029 249.86994753362495 C440.05684521694417 259.7297365537607, 440.2181708222344 270.19679470404213, 440.6490369846228 293.60203566804597 M440.50287591420437 249.7584719722818 C440.5738364340309 262.8698929244056, 440.2073340223045 276.6486775421312, 439.3704643094469 293.7157589392622" stroke="#0d9488" stroke-width="2.2" fill="none"></path></g><g><path d="M439.4575421929009 293.9137952807209 L435.6177837739141 285.42021627034836 L443.40119107675514 283.80383853664625" stroke="none" stroke-width="0" fill="#0d9488" fill-rule="evenodd"></path><path d="M440.28381858633867 293.86967153032265 C438.2671670485331 290.2087515081833, 436.80427270651535 286.9938850020108, 435.6115914568588 285.04708786788325 M440.2242233262908 294.24472146350223 C438.88932272595054 291.13917534303374, 437.85655624655385 288.06232835887545, 436.19068711549636 284.56320048456575 M436.03469756111883 284.66800759311116 C438.87568516025453 285.16470542484456, 441.9756850529602 284.7567550689991, 444.0724007093489 285.0664807773354 M436.08053609404146 284.64994739461946 C438.6437750767712 284.75355031899346, 441.1125743070091 284.6657105451771, 443.9446965748657 284.8391090812644 M444.1688849052413 284.9641292726678 C442.6747918511159 287.7441997813179, 441.12573164017675 290.3241365667348, 439.90136158325095 294.0358897979349 M443.6785481152083 284.7593999316751 C442.9300691710418 287.37472542520356, 441.6795476044864 289.56066954591665, 439.89709444318726 293.9943578492247" stroke="#0d9488" stroke-width="1" fill="none"></path></g><g><path d="M718.8548296997247 248.56914229634123 C718.5186007203556 259.6524958198325, 718.694611793368 268.6493969149832, 718.7175780267368 294.7672493186404 M719.6101609136934 250.35539676979357 C720.3702538871755 262.656579011334, 719.842569163383 275.65496172145066, 720.1818223925994 294.2667515158279" stroke="#2563eb" stroke-width="2.2" fill="none"></path></g><g><path d="M720.5320843508721 294.9700501019967 L716.4238625660741 284.3303723227915 L724.6741369162361 284.5386140010267" stroke="none" stroke-width="0" fill="#2563eb" fill-rule="evenodd"></path><path d="M719.927637975674 294.1314157235669 C718.5214071520664 290.8775261655857, 717.3829948843136 287.0567144921182, 716.5636552802359 284.3175429767789 M720.1134218543165 293.80251949368477 C718.72414324809 290.88670238685035, 717.4098756427967 287.92462254931496, 715.90158018826 284.6397971648849 M715.9673831392198 284.61821828712004 C718.9116299940359 284.71286693266705, 721.1887156682802 284.4988701132364, 724.264594338046 284.4874004706428 M716.1044226259941 284.8442814533381 C718.3547736693381 284.94615186213116, 720.9425612366969 284.6650640391307, 723.974195059506 284.72188378845334 M724.1258614971875 284.8560869475512 C722.3278656959477 287.94178502217443, 721.6883020225431 289.7324918190916, 719.6741494688557 293.6443240786241 M723.6690954863478 284.84358756116956 C722.7153401768122 287.3181312572943, 721.9169984902265 289.3306920272999, 719.9934403471786 293.87074363262394" stroke="#2563eb" stroke-width="1" fill="none"></path></g><text x="32" y="388" font-family="'Segoe UI', 'Inter', Helvetica, Arial, sans-serif" fill="#78716c" font-size="10" text-anchor="start" font-weight="600" letter-spacing="1.5">ABSTRACTION</text><g><path d="M31.944435576766118 394.1679589024236 C374.5453500411091 394.4774535622381, 717.2158816443774 394.5124696229171, 928.236867292048 393.68166393751477 M31.909139216722476 394.1577946440786 C216.08226624446175 395.1552312503724, 400.2026352004206 394.91121707972286, 928.0562862852619 394.13546586469926" stroke="#a8a29e" stroke-width="0.6" fill="none" stroke-dasharray="6 4"></path></g><g><path d="M91.73278906240299 408.61131122418317 L680.2647430127829 407.9137237561191 L680.8579540328443 449.0816242792436 L92.12595056231741 449.27328426944945" stroke="none" stroke-width="0" fill="#e7e5e4"></path><path d="M89.98160660794633 408.25077855588165 C235.58024263984632 404.9635827537755, 382.0363324869994 404.535288866707, 679.1341618147064 407.7714307882044 M89.6372199638153 407.60483277645375 C322.7404911426364 411.57402247531036, 554.6144845188884 411.40266470194933, 680.0428754427198 407.5304160487647 M682.3001709446563 410.3028392601167 C682.2909690760879 423.71261318859393, 680.2085309679367 436.68558332322146, 678.5996971356078 448.86527716366413 M680.6571424725581 408.02791901111624 C680.8268412865652 422.65916833946886, 680.9284032662976 435.981307706689, 681.0194014783514 447.42607609020104 M680.2714416180496 447.82080308187335 C446.2263272057858 446.9268803334793, 211.7261025432074 448.7932081420033, 90.73851943225776 447.0607625822154 M679.7260843673376 447.73297814764175 C467.0741390245371 448.3416429578321, 254.47462189352342 448.22188441153315, 89.8840028933696 448.3731050074659 M87.81456860529607 446.5231792404735 C91.64859901123387 435.26559330846686, 89.13314160785887 427.95852533964484, 88.16698858488874 408.7042459569537 M90.05911301460017 448.7520065396815 C90.53974555133358 437.1937898224119, 90.61305091124939 426.31637489282286, 89.27888010569137 408.45912531251287" stroke="#a8a29e" stroke-width="1.5" fill="none" stroke-dasharray="8 4"></path></g><text x="385" y="433" font-family="'Segoe UI', 'Inter', Helvetica, Arial, sans-serif" fill="#44403c" font-size="13" text-anchor="middle" font-weight="600">Hypervisor Trait  (VM lifecycle abstraction)</text><g><path d="M740.6250002167794 409.5276604328262 L910.6083632358254 408.279909896624 L909.3013304445255 448.9506512080539 L741.4076416800397 448.9578354598002" stroke="none" stroke-width="0" fill="#dbeafe"></path><path d="M742.1313395114104 408.41621681262205 C777.4553867143592 405.1550543428481, 815.3220514136201 406.6261338213388, 908.6128442304756 408.8260455915001 M740.1545976478437 407.7556010313949 C780.310176589044 408.5373397849726, 818.755299059648 408.5529674846253, 910.3292353236519 408.65711953862893 M910.6982123212239 409.7433915975418 C909.9046745090563 420.02912968352405, 908.4600235380416 427.6411794382939, 909.4428187672063 447.4476795403912 M911.0071197258834 407.7291450795518 C910.6366449900329 419.4050726676325, 909.7945176490052 433.04198555460545, 909.9900195886986 448.9953213879765 M912.1186786730447 447.4395411108385 C849.077988629083 447.86487365643006, 793.3632489205435 449.81245557501217, 739.0034462026672 448.82623836902434 M909.9790804184337 447.14816953334247 C863.531890671618 449.5991638232775, 814.5698244388373 449.1886228308064, 739.4690935564324 447.5985444370916 M742.1670061114977 445.632717923518 C742.0608951539998 439.7789876120697, 741.9599089382931 428.67329198907726, 739.8112614278863 410.0342613255606 M739.7757442594724 448.1930224735469 C740.961797676148 436.5367399094975, 740.683518267852 425.53987499984083, 740.6652319271393 407.81274568545655" stroke="#2563eb" stroke-width="1.5" fill="none" stroke-dasharray="8 4"></path></g><text x="825" y="428" font-family="'Segoe UI', 'Inter', Helvetica, Arial, sans-serif" fill="#1e40af" font-size="12" text-anchor="middle" font-weight="600">K3s Manager</text><text x="825" y="442" font-family="'Segoe UI', 'Inter', Helvetica, Arial, sans-serif" fill="#3b82f6" font-size="10" text-anchor="middle">on-demand download</text><g><path d="M440.5938165361611 361.38799602435284 C422.4578721025652 374.2524631865663, 403.1499616107238 388.40685108243457, 386.5099275257373 404.74990928449995 M440.46353181712055 359.38879736769087 C424.192943046625 372.7647563074397, 408.00777771090156 386.0432093974824, 385.28542021017125 403.69575525309847" stroke="#475569" stroke-width="2.2" fill="none"></path></g><g><path d="M384.0290016631278 403.7531426368872 L389.41107949377584 394.9229962668644 L395.51007669509386 401.5080361254232" stroke="none" stroke-width="0" fill="#475569" fill-rule="evenodd"></path><path d="M384.6939925946957 403.85766262872494 C386.228306237322 401.79742255186767, 387.95571238467903 398.8519551175169, 390.0653932612764 394.8932779590636 M384.9077877178843 403.93988133776276 C386.1024120601943 401.7662317309367, 387.7815944748363 398.9120515118288, 389.7573254935674 395.0931112312948 M390.0519002322573 394.92804789693827 C391.27418631339935 397.3029899153889, 393.5856454161088 399.78892415249857, 394.39979941513127 401.31175643422154 M389.6684881292587 395.13889617593424 C390.9319437237753 396.9589013184486, 392.40700163734306 398.5755816503557, 394.5630833201523 401.25871355793197 M394.425943692026 400.8364820840477 C391.42576617640924 401.98129569494114, 389.4092028494337 403.3659135661454, 384.66577801751197 404.25394655192144 M394.52747956605845 401.2326458566448 C391.24877593938567 402.4723994425563, 388.07502113385846 403.05889547087617, 385.01248999327163 403.9052227091028" stroke="#475569" stroke-width="1" fill="none"></path></g><g><path d="M719.4626324199033 360.6061641631449 C749.883357028572 374.12740506941174, 777.617568874567 383.7434019803814, 824.2781932367176 405.01812959444635 M720.0215464612899 360.59993405126824 C761.0577134952331 377.60233025163615, 802.3996294609616 394.8400180478377, 825.588976077389 404.78311907493594" stroke="#2563eb" stroke-width="2.2" fill="none" stroke-dasharray="6 4"></path></g><g><path d="M824.6889224122186 404.53483911967675 L815.7091690530101 404.07159140071354 L817.8092040884349 397.2895773607008" stroke="none" stroke-width="0" fill="#2563eb" fill-rule="evenodd"></path><path d="M824.6167254406156 404.360110789538 C822.41779455701 403.7671375673267, 819.4687859474025 403.98568205141777, 815.4094554510416 404.03325308596567 M825.0627916642886 403.80868451591664 C822.301071440493 403.9169826140287, 819.3098355206341 404.0271244777933, 815.0559451645983 403.8262184269967 M814.8129551599961 403.9524579287119 C816.4145637127083 401.4786689149897, 817.2520537411585 398.90040790639745, 817.9150428400123 396.8113390770106 M814.9485233486392 404.1869709562493 C815.9375335678264 401.6441810130009, 816.7733614558128 399.4705272956099, 817.959043456241 396.9376508949335 M817.5915750772162 396.92990373198563 C819.7694660445468 399.1106294286112, 822.0663296461996 400.83097393380774, 824.9795928194345 403.6151755400423 M817.7733644609558 396.9215710412826 C820.3258961427481 399.27135845419116, 822.8160697664356 401.54963991916935, 824.7985862770067 403.8900416962385" stroke="#2563eb" stroke-width="1" fill="none"></path></g><text x="32" y="476" font-family="'Segoe UI', 'Inter', Helvetica, Arial, sans-serif" fill="#78716c" font-size="10" text-anchor="start" font-weight="600" letter-spacing="1.5">PLATFORMS</text><g><path d="M32.28906307150873 482.25452456768033 C271.682143747161 481.70887035139395, 510.9397944003476 482.20758233287734, 928.1545593524087 481.84439896990165 M32.07841720499302 482.1564848707913 C293.8761638919051 482.9786450739848, 555.534932989043 482.9325499118086, 927.9471382169999 482.00788031976833" stroke="#a8a29e" stroke-width="0.6" fill="none" stroke-dasharray="6 4"></path></g><g><path d="M81.90958510718328 493.996988609346 L301.81095775451286 498.07407976498183 L300.7791971136333 569.6626209014747 L78.48182584824757 567.7835713473056" stroke="none" stroke-width="0" fill="#059669"></path><path d="M77.92386174086326 496.93628629503695 C148.05552357094953 497.9921166587074, 216.65350925474624 498.1734460376525, 300.5237622354452 497.05367960038484 M79.68794031063369 495.6875301847728 C147.961980157395 496.2703316382858, 214.98560062077863 497.5875771764606, 300.4187756874143 496.775337006897 M300.91166516792646 495.45860578128304 C299.0758880820523 517.2786245253989, 299.52064404496775 532.9736940507463, 300.1108047274792 565.6400639060829 M300.5048014464863 495.15844787370065 C301.8214850986998 517.3921078822162, 301.8109120887219 537.3096598843896, 299.70155996475364 567.1918484393397 M301.7152937675391 566.5386452041771 C220.22748907977822 563.4685013735455, 139.7578445630952 566.7358268892276, 79.43676713129268 566.3620452407653 M299.41311952719593 568.1066271114819 C220.45566714352046 563.9563111202617, 140.277169025845 564.5278985398206, 80.62341114869878 568.8104070436302 M79.31895879229728 567.4316835852998 C82.90529385373011 541.9424982034077, 78.77027354032818 513.8344266910267, 82.15671984501257 493.81340324753916 M79.38989452956476 568.9908411841967 C78.3749377682667 547.4872782495764, 80.39267207598203 528.1461273803043, 79.24415758309918 494.9663752479185" stroke="#047857" stroke-width="2" fill="none"></path></g><text x="190" y="524" font-family="'Segoe UI', 'Inter', Helvetica, Arial, sans-serif" fill="#fff" font-size="14" text-anchor="middle" font-weight="600">macOS</text><text x="190" y="542" font-family="'Segoe UI', 'Inter', Helvetica, Arial, sans-serif" fill="#d1fae5" font-size="11" text-anchor="middle">Virtualization.framework</text><text x="190" y="558" font-family="'Segoe UI', 'Inter', Helvetica, Arial, sans-serif" fill="#d1fae5" font-size="11" text-anchor="middle">+ Rosetta + VirtioFS</text><g><path d="M350.7602436565411 495.1492556474381 L571.6363026680879 495.61514945913 L567.8796985808988 568.9341061568132 L350.5330899074673 566.962293469371" stroke="none" stroke-width="0" fill="#d97706"></path><path d="M350.6705266780427 495.81750622676407 C405.5833512092142 497.82909130009443, 466.69302554456704 496.6472683050458, 568.6417965048395 497.5217876927822 M349.2647061377822 495.67083771519185 C427.5408072870607 493.02330821292844, 506.54071001214794 493.9994286242374, 570.4231276295383 496.2275350253067 M569.9101854044521 497.4439480073725 C571.7496332003885 523.4535371919839, 568.450763849923 553.4112158395685, 569.8136094163804 567.4866750846727 M570.0481479497683 496.9238747493233 C570.720612060571 516.3421736893641, 570.0146480181858 538.9996758850396, 570.6097967622477 568.7217061864004 M569.7423653486132 568.0898000196219 C507.97205926819896 570.3401151509191, 449.61687056359966 572.7560173124509, 348.021217530014 568.8870434211206 M570.3954515909055 568.8775678514495 C497.6990792079508 570.3345788328701, 425.7066485490625 571.1732875213339, 349.67954392707514 568.6869266299205 M352.0039591628442 567.2158279012347 C351.00559177563366 545.4320230460678, 346.94432974019804 525.6373648907996, 351.17231587801496 496.5742638883752 M350.3742363746791 567.0335799856723 C350.3606936384527 546.1122701382712, 350.2178011073656 523.9262828790592, 349.0104700565526 496.85904448663393" stroke="#b45309" stroke-width="2" fill="none"></path></g><text x="460" y="524" font-family="'Segoe UI', 'Inter', Helvetica, Arial, sans-serif" fill="#fff" font-size="14" text-anchor="middle" font-weight="600">Linux</text><text x="460" y="542" font-family="'Segoe UI', 'Inter', Helvetica, Arial, sans-serif" fill="#fef3c7" font-size="11" text-anchor="middle">KVM (rust-vmm)</text><text x="460" y="558" font-family="'Segoe UI', 'Inter', Helvetica, Arial, sans-serif" fill="#fef3c7" font-size="11" text-anchor="middle">+ virtiofsd</text><g><path d="M619.2459458320745 496.09845654026253 L838.3698812384857 497.2221010745734 L841.9030987084615 566.8723961283745 L619.228250468795 569.1700414674606" stroke="none" stroke-width="0" fill="#dc2626"></path><path d="M618.358997218496 497.0151787643465 C667.1891180696977 496.6201514806057, 718.611429128258 499.2956805160686, 840.2360327022062 497.87636342273055 M619.8798257949586 495.4561811745472 C689.8198528071819 497.851183551235, 759.1094086732976 498.781484133924, 839.7604679099742 494.9634979057252 M842.2866554358101 494.3967737110941 C840.8880738892376 518.7446159081354, 842.0680547084594 546.7858356237599, 841.4330158269515 568.9219439732097 M840.6876695642883 495.29654131965356 C840.6472126870357 523.4924946981005, 840.0125734424169 549.4082035327548, 839.830655737078 566.9313014281565 M841.0792870530748 569.7415049368938 C758.4406883912819 568.5662872639406, 674.9907804454496 568.1085102965127, 620.2990783245812 565.9593834271813 M839.1569710864344 569.020399131151 C780.1584412407526 571.9119187862068, 720.7465675210996 571.4723188399366, 618.9902833984438 568.6791788051553 M621.3787655066549 566.5449033876257 C618.4121295715382 547.3206109913981, 618.9269661004666 530.9842092032618, 619.9260087918709 493.91249977494056 M619.8281025255491 568.9636597502904 C618.1899916916122 539.7386598753206, 619.544862028008 512.509758166266, 618.9570686338565 496.19631297565917" stroke="#b91c1c" stroke-width="2" fill="none"></path></g><text x="730" y="524" font-family="'Segoe UI', 'Inter', Helvetica, Arial, sans-serif" fill="#fff" font-size="14" text-anchor="middle" font-weight="600">Windows</text><text x="730" y="542" font-family="'Segoe UI', 'Inter', Helvetica, Arial, sans-serif" fill="#fecaca" font-size="11" text-anchor="middle">Hyper-V (WinHvPlatform)</text><text x="730" y="558" font-family="'Segoe UI', 'Inter', Helvetica, Arial, sans-serif" fill="#fecaca" font-size="11" text-anchor="middle">+ Plan 9 / SMB sharing</text><g><path d="M229.86437605486464 447.35829387643327 C220.35654104519128 463.0666685648147, 208.90040679144053 475.2203684665234, 201.57184560544923 493.2122951770946 M229.89008992522395 448.7223225805129 C220.71856879700334 460.9864510250357, 212.32463837476166 473.8763512718825, 199.50834005043484 491.31401967809734" stroke="#059669" stroke-width="2.2" fill="none"></path></g><g><path d="M200.8996812982933 492.22019577053914 L202.3176843075718 481.9422774568023 L209.1146157562394 486.61347241582155" stroke="none" stroke-width="0" fill="#059669" fill-rule="evenodd"></path><path d="M200.19796349730623 492.05749201246914 C200.89300173337395 489.68283693271826, 200.83580951723513 486.92562228186324, 201.6570368709402 482.4159962077254 M200.15589108241846 491.8371876509924 C200.63037335533377 489.302077802358, 201.2883228907404 486.04272569379117, 202.09295031798442 482.00657067565 M201.75730309986716 482.2374018785998 C203.80784618606285 483.8173007497086, 205.7714178693277 485.01321589272015, 208.08300867782086 486.39560460895484 M201.9117856788014 482.00938291657013 C203.2668423319961 483.4030660967215, 204.8822506374614 484.3834967104508, 208.42911407094115 486.5397082430651 M208.16645975525236 486.84295418519406 C206.2553579450065 487.9476200581195, 204.42369920994568 489.6060656015503, 200.24147342559905 491.8269198345532 M208.5245769476582 486.7173860397297 C205.35593067978502 488.6807201754635, 202.32409232054013 490.76646822866894, 199.90593874576462 492.01920665568133" stroke="#059669" stroke-width="1" fill="none"></path></g><g><path d="M385.03012868799067 448.40522433511666 C398.6584425797471 457.49945860014327, 411.1963306475892 466.59114257579665, 450.8178982670738 492.8669996801109 M384.7954835188267 447.820209489731 C398.4945395483465 457.44862185362, 411.41969073468744 465.64635976024704, 450.6658998285401 491.2539988302451" stroke="#d97706" stroke-width="2.2" fill="none"></path></g><g><path d="M450.91765624703976 492.52761823531245 L440.48395845228873 489.9130024077419 L444.21222247237995 483.34678782117084" stroke="none" stroke-width="0" fill="#d97706" fill-rule="evenodd"></path><path d="M449.8781944052477 492.06575417362023 C446.5343626973623 491.12409613377275, 442.65894423282907 490.76295599716144, 440.070547375212 490.44169526824703 M450.11864605166517 491.9902126538682 C447.1312228486649 491.56965907154876, 444.1203979364192 490.8899231783449, 440.27732771370034 490.1171913122684 M439.96613969039043 490.3390786163953 C440.96801678071984 488.6078807660882, 441.93032557232215 486.5952530006614, 444.8430285930142 483.3487920199837 M440.08137201307545 490.0483672856371 C442.03457909602724 487.77722482342665, 443.5641762652132 485.28153883452444, 444.51074886842076 483.77660220047756 M444.3746147812956 483.2490003840214 C446.55265318186275 487.08892530041913, 448.2750438766632 489.6924927166458, 450.31196436148525 492.00704348858056 M444.5713044813714 483.57235684433255 C446.2941773380424 486.86870718472017, 448.6541581608669 489.8771839662203, 450.1275992379264 491.9699808561987" stroke="#d97706" stroke-width="1" fill="none"></path></g><g><path d="M540.0122328372722 447.20749719316467 C602.065960052812 465.0393330706651, 663.0092067674051 481.31430452627313, 700.2877460188201 491.73322807403446 M539.6507561057908 447.93781539690707 C580.3951271117774 459.28052245209716, 619.482103884354 469.83843003341343, 700.7458473246256 492.45581827840806" stroke="#dc2626" stroke-width="2.2" fill="none"></path></g><g><path d="M699.2251020453134 492.5592961684875 L689.6214736160186 492.40313079984884 L691.6101399809259 486.0414064718814" stroke="none" stroke-width="0" fill="#dc2626" fill-rule="evenodd"></path><path d="M699.9185245720415 491.7592014695813 C696.3639409197299 492.83161951732126, 692.695406960802 492.5373907294243, 690.4614096761766 493.8012193894993 M700.0437442891921 492.1992156581672 C696.9767603006208 492.45009704949143, 693.5203505079385 492.668157595425, 690.1012906196089 493.2422800264848 M689.9476420300078 493.3928948435506 C690.8746881547189 491.5745467352247, 691.2158340040801 490.326114824272, 692.2385683504958 485.72193241810555 M690.2217438435101 493.1357821665315 C690.7289104658855 491.1738773957332, 691.4057236842905 488.8045798760703, 691.9835646502171 485.968746077073 M692.365982474864 485.8319933839072 C693.9067473343267 487.5735102326121, 696.5207688857495 489.0672255448072, 699.9629671262641 491.71265116179177 M692.3360832651291 485.99898954735477 C695.138696083791 488.11958247072823, 698.0841699289174 490.56627375174327, 700.0140723585973 492.2253185320234" stroke="#dc2626" stroke-width="1" fill="none"></path></g><text x="32" y="596" font-family="'Segoe UI', 'Inter', Helvetica, Arial, sans-serif" fill="#78716c" font-size="10" text-anchor="start" font-weight="600" letter-spacing="1.5">KUBERNETES</text><g><path d="M32.196899933688094 602.0300051396391 C237.4281609523693 602.852483908032, 443.35252619639476 603.1836256624632, 928.0135956953832 602.0963077178723 M31.94164944636832 602.0870244743087 C346.0248228087414 600.6971094031092, 660.189490759948 600.5539187160442, 927.952583151895 602.136629283082" stroke="#a8a29e" stroke-width="0.6" fill="none" stroke-dasharray="6 4"></path></g><g><path d="M279.9836557814579 617.8522028605794 L642.2023195697678 617.5991715020706 L638.7207754760394 665.8275187790708 L278.93517843667826 665.8368436508897" stroke="none" stroke-width="0" fill="#2563eb"></path><path d="M278.78548326706976 615.1318406852811 C375.0678799477215 614.4919628580401, 471.64281860533447 614.2331343717416, 638.9600282875662 617.0637698885732 M279.2913338145877 615.3314774988836 C375.4060157187047 618.6397933567919, 471.9610646724629 618.0033471777281, 640.6629891857307 615.316978832109 M639.5781197407408 615.4512254988014 C642.0244286034216 631.0880156541766, 640.5135431475345 649.848270554001, 638.1771183626569 667.7063964219415 M640.2814521020067 616.8703105521156 C639.6375203916091 635.2717755851755, 638.6471822380718 652.517823530128, 640.9991547463533 669.132064450646 M640.6488548164945 668.1475452842225 C503.52652289553515 665.8857403952884, 367.81560431059586 665.6305263797562, 281.32664856462765 666.4947354283496 M640.0972710796013 668.1953604709537 C507.28293667947275 665.1196278349532, 376.4744819976354 665.3963833544818, 279.8193416666412 668.0138680779199 M279.92500765297916 668.7966764478481 C280.64399140597476 657.1019227189266, 278.1746802298049 647.8412536982312, 279.3272155642794 614.6987269670968 M279.86625192403386 667.4946915324041 C279.7647371001248 649.4310292627155, 280.17608902662806 632.867795019527, 280.2141047822489 616.0146901173032" stroke="#1d4ed8" stroke-width="2" fill="none"></path></g><text x="460" y="641" font-family="'Segoe UI', 'Inter', Helvetica, Arial, sans-serif" fill="#fff" font-size="14" text-anchor="middle" font-weight="600">K3s (Lightweight Kubernetes)</text><text x="460" y="657" font-family="'Segoe UI', 'Inter', Helvetica, Arial, sans-serif" fill="#dbeafe" font-size="11" text-anchor="middle">pods, services, deployments, namespaces</text><g><path d="M910 448 C930.1512509687009 529.3447493723643, 929.3182138295823 600.0812686509983, 639.4610273507465 640.3512823872547 M908.8771528391242 448.76534146800674 C930.7350592830916 528.9050998195248, 930.034495974462 600.1123164470828, 640.6396749359494 640.1030689946681" stroke="#326ce5" stroke-width="1.5" fill="none" stroke-dasharray="6 4"></path></g><g><path d="M640.806946737249 640.2461670610885 L648.1833358014175 634.7652473329388 L649.0020381268508 643.1703223263517" stroke="none" stroke-width="0" fill="#326ce5" fill-rule="evenodd"></path><path d="M640.1991494320789 639.5639340926206 C642.0682648054402 638.5270835638244, 644.4714689344197 637.6669145110877, 649.0159512826277 634.756472235351 M640.0461648353399 639.8141384392991 C643.0817780615699 637.9384689543397, 646.6201954368136 636.2000732549833, 648.5795911515901 635.0306971813908 M648.2047495049806 635.1419559937485 C649.1160618226018 637.0257738205494, 649.4495850843894 640.1490126271011, 649.6994187961433 642.7428013725499 M648.7253359538619 634.8871380289349 C648.809385534923 637.6085658120948, 649.3985094961031 640.2694079288082, 649.5486546346251 642.7564672089833 M650.1049776945264 642.7391393774695 C647.4828792095799 642.3837340414659, 645.0848677280839 641.3699781181189, 639.5530179595012 640.0554516318608 M649.701550582646 642.6661153200799 C647.3596959833629 641.9189326101155, 644.7114433587672 641.1741287613153, 639.7796237932421 639.7615250526626" stroke="#326ce5" stroke-width="1" fill="none"></path></g><g><path d="M198.01666120578827 689.730802875258 L760.9688921307084 690.328952263653 L761.652685885859 713.7582841744853 L199.24525908928123 713.1137079455892" stroke="none" stroke-width="0" fill="#e7e5e4"></path></g><g><path d="M215.55293149424412 694.681916667426 L226.99236122045116 697.2495114596302 L224.99682093137358 709.1728783512482 L214.33050447717974 708.6218182058698" stroke="none" stroke-width="0" fill="#0891b2"></path><path d="M213.85928336011645 695.32786411083 C219.2511036471621 695.2300128920117, 222.6978317168016 696.5722232944677, 226.6790916158118 695.980542097388 M214.89851224786236 695.893317338209 C218.01830646299123 695.8830230519006, 221.98722672357624 696.0552809552161, 226.18820425286688 695.8948308792889 M226.85159741010258 695.6211104218415 C227.1636502176155 699.0008210982263, 227.45700954171002 700.9278902368939, 227.12521754158107 708.2662656283773 M226.64333319364061 696.1430870074134 C226.882276474384 699.7797812655019, 226.83545738312037 704.1514264835481, 226.05084405789927 708.1178134053777 M226.63231268636363 707.908297212742 C220.96181521580408 707.1055446513802, 216.72285470150234 707.9300367274202, 214.95066456428717 708.1497657058861 M226.51327081167216 708.4344704718347 C222.6209132234687 707.5743389906042, 219.34723235305418 708.1557578271976, 214.4013350371781 707.5430565010531 M214.1477977037429 708.2822020786518 C215.02036236187848 704.0946931408297, 214.09850627935987 702.4007698175318, 213.63497747148216 695.3951169425254 M214.8890758102634 707.6713426981066 C214.5150504035315 705.5025790812277, 214.67545635006283 703.2392446158167, 214.0579415207401 695.8888824243478" stroke="#0891b2" stroke-width="1" fill="none"></path></g><text x="232.5" y="706" font-family="'Segoe UI', 'Inter', Helvetica, Arial, sans-serif" fill="#44403c" font-size="10" text-anchor="start" font-weight="500">Docker path</text><g><path d="M321.02749097356997 696.6746324101495 L333.7801002407623 694.7217686804822 L331.7812350178745 707.605865573478 L319.27393807758205 708.8337908732143" stroke="none" stroke-width="0" fill="#0d9488"></path><path d="M319.75051147321 696.8946493737498 C323.6611289761066 696.014208632612, 326.2128080161916 695.2321012559753, 332.24335430361583 695.4215941985369 M320.4191582876177 695.8002593719013 C323.85850209808183 696.391648295124, 326.55988528885797 695.7007214937074, 332.4393845389801 696.2355746353811 M332.3947590972067 695.5961484701543 C332.1673564276884 698.7916469849198, 332.0364039534892 701.8754617391598, 332.4539121520475 708.1012675842017 M332.4753058398213 695.6065034142501 C332.55004691432 700.4835845729568, 332.3003672298632 705.0016645544542, 332.29155846316536 708.3758589532916 M331.82601176543585 707.4111305161401 C330.06731182329514 707.585068285287, 327.30723322836457 708.9914025373321, 320.76715970963124 708.3667584031666 M332.68660310196606 707.9455268037906 C328.67200123634353 707.9485094975358, 324.6346292007451 707.822780007041, 320.02286063632926 707.5892260491274 M321.2134678835471 707.703045211461 C320.13776989174124 703.8903940551104, 321.386168131105 700.3198561612663, 321.10003256943844 696.5561744972639 M320.66489688612876 708.205433886872 C320.8560879610078 704.9446410158815, 320.72764168088054 702.5954252968553, 320.16730543907255 695.9903261062099" stroke="#0d9488" stroke-width="1" fill="none"></path></g><text x="338.5" y="706" font-family="'Segoe UI', 'Inter', Helvetica, Arial, sans-serif" fill="#44403c" font-size="10" text-anchor="start" font-weight="500">gRPC path (VMs)</text><g><path d="M456.8122130247296 697.0123209181035 L468.60048060426203 697.2102523448204 L467.6467108538643 708.4577674149679 L454.7344712941114 708.7763711337149" stroke="none" stroke-width="0" fill="#2563eb"></path><path d="M455.18308870148127 696.8421174328516 C457.3898721896337 696.8451773088248, 461.81881890907323 695.7187114185888, 467.1601269111786 695.0618410603468 M455.07994480983626 696.2767056571869 C459.96003624736267 695.5960396173236, 465.03166151574027 696.3095565460028, 467.17042217633787 695.828690612803 M467.9232318386711 695.5897193176849 C467.2353540840289 699.6090919685957, 467.84627251440145 704.3763278430043, 468.4502313804524 707.818107348497 M467.79132943733697 696.3366324160402 C467.41904304729456 700.8644846689739, 467.78436989539495 705.4100708805307, 467.13670860756434 708.1089914823765 M467.2456399731271 708.0489519570697 C465.37281218467695 707.4326326149588, 462.0637429703082 707.6971844488558, 456.29473674622784 707.1346650001971 M467.0555142064008 708.1183654036894 C463.10425334084795 708.4156261269393, 458.10297412177573 707.8462372285454, 455.8499547055027 708.2918262238535 M455.06302982530383 707.3158114043816 C454.86372860804573 704.3430523041504, 454.614698998345 700.496528926521, 455.3825339682413 695.4149739401515 M455.8811796199796 707.7152973521527 C455.9657878755822 703.7323997293912, 455.90870068271585 699.3996962015951, 455.90113006085005 696.1956158763988" stroke="#2563eb" stroke-width="1" fill="none"></path></g><text x="473.5" y="706" font-family="'Segoe UI', 'Inter', Helvetica, Arial, sans-serif" fill="#44403c" font-size="10" text-anchor="start" font-weight="500">K8s path</text><g><path d="M542.1296317652334 696.5901944232178 L555.316621703269 696.4407705264272 L554.4817699381871 706.4236196699298 L542.3034099804987 709.0669582202867" stroke="none" stroke-width="0" fill="#059669"></path><path d="M543.9672305179487 695.3547236158942 C547.3165304985599 694.9971840310926, 549.7826594803524 695.5193682855203, 554.91789351257 695.7617729436422 M543.4495791723991 695.890403707826 C546.7561803512596 696.080899556479, 550.2476808581488 695.7509298604399, 555.389128143613 695.9622012254918 M554.73936878085 695.5742476899679 C555.1159760815143 699.5519271041566, 556.5154568923386 702.5036059763675, 554.5507145254122 707.9061767436652 M555.3094779533429 695.9097236908102 C555.0147490229597 698.9454331678287, 555.0534188353548 702.6927088246923, 555.5375147568747 708.2849410750806 M554.5884026268915 708.9501821147351 C551.1267366207242 707.1945000415104, 546.0077885475608 708.0457958888737, 543.4425154438217 708.2200995512829 M555.6989325569806 707.6018115656791 C551.7703972172934 708.0935132385581, 547.8085724594242 708.3895020906249, 543.6816772688364 707.9061593735241 M543.5054920399828 707.6680543808195 C544.1626612464256 702.8125770621813, 542.9422541150541 698.6048040448379, 544.1285731058413 695.5299995336128 M543.5522531463446 708.3555151744998 C543.6684993552526 705.0407337506937, 543.7454866649106 703.238893246632, 543.0760037419877 696.4564683159252" stroke="#059669" stroke-width="1" fill="none"></path></g><text x="561.5" y="706" font-family="'Segoe UI', 'Inter', Helvetica, Arial, sans-serif" fill="#44403c" font-size="10" text-anchor="start" font-weight="500">macOS</text><g><path d="M613.211519643884 696.8945152286469 L626.1624648028718 696.5689357980356 L625.6763046136496 708.3866218767548 L613.1667677724939 709.0123811174458" stroke="none" stroke-width="0" fill="#d97706"></path><path d="M613.5606026079683 696.8031834240388 C617.6458118622318 695.4976333330649, 622.5272370364821 696.5359218575272, 625.6575476138819 695.7979206432999 M614.2057159585602 696.3559296975805 C616.8484728180582 696.0166298643306, 618.9345131448672 696.0998290140254, 626.5974973925912 695.7558968416653 M625.7653404895974 696.3477513584986 C626.0316358438719 698.3015165194106, 626.0076404451407 702.4558713474098, 627.1904301988423 708.4628364084284 M626.5499185974893 696.3827008723757 C626.5457409400098 700.9861044646652, 626.8758473490783 705.3955379654493, 626.8163943123584 707.5794282832256 M626.1001119441253 708.4373818703335 C623.3764227166298 707.0562977784408, 621.0802311591062 708.2410202780287, 613.7951502150498 707.2771745942053 M626.3986402133088 707.9425210825057 C623.6151817568891 708.3199882155966, 620.1923416195137 707.8782446735605, 614.9300804430428 708.3495108558716 M613.8002894999082 707.3626342970031 C614.1487374909439 703.8064755740799, 613.6078039011854 700.1166492065779, 614.8683998492993 695.6348119059544 M614.9422934722852 708.4519526039301 C614.8018182020583 703.4504787605654, 614.5494609527772 698.8124925729361, 614.7771922733475 696.3567866433892" stroke="#d97706" stroke-width="1" fill="none"></path></g><text x="632.5" y="706" font-family="'Segoe UI', 'Inter', Helvetica, Arial, sans-serif" fill="#44403c" font-size="10" text-anchor="start" font-weight="500">Linux</text><g><path d="M686.0809508538706 695.8804915146935 L696.8907415737145 697.0598663061393 L695.9874269924512 709.3436367888544 L685.2229326312835 706.7597303843999" stroke="none" stroke-width="0" fill="#dc2626"></path><path d="M685.183661175443 695.3847011176562 C690.1016192873788 696.899329380962, 693.3989366676888 695.2501209693787, 697.5241730984116 695.7042889709471 M685.0614267378744 695.7679207080091 C688.8484624327624 695.9327917501577, 692.0614453029474 696.0245878880165, 697.6973867417095 695.6213720128524 M697.3939551584244 696.3324707412335 C697.4902710662816 698.7086211113746, 697.4141462242436 702.8045414645372, 697.6152080057899 708.8565286908864 M697.5030220840018 695.9322036776028 C697.315690744269 700.3181444453272, 697.359160606154 705.7339191646986, 697.3993002993894 707.8241492404085 M698.1457351185522 707.5082757414082 C693.6288390642216 707.8556961691982, 688.788530650204 708.5522234577065, 685.067982313062 707.3207580674817 M697.3128164065897 708.4698844869214 C694.8257837817763 707.6380302494467, 692.1349888108277 707.7128819016121, 685.4607241284004 707.9841841597682 M685.9862281288079 708.4048129230476 C685.3646613281045 702.898621815034, 685.7438264978927 700.4853325440514, 685.5810046945331 695.5608751422724 M685.596378054795 707.8001278776818 C685.1837620215268 704.4654590232269, 685.3084779590396 701.6803282265789, 685.0996721751718 695.9593555329428" stroke="#dc2626" stroke-width="1" fill="none"></path></g><text x="703.5" y="706" font-family="'Segoe UI', 'Inter', Helvetica, Arial, sans-serif" fill="#44403c" font-size="10" text-anchor="start" font-weight="500">Windows</text><text x="920" y="730" font-family="'Segoe UI', 'Inter', Helvetica, Arial, sans-serif" fill="#a8a29e" font-size="9" text-anchor="end">hand-drawn with rough.js</text></svg>
