<svg xmlns="http://www.w3.org/2000/svg" viewBox="0 0 512 512" fill="none">
  <defs>
    <linearGradient id="hull" x1="0" y1="0" x2="1" y2="1">
      <stop offset="0%" stop-color="#8b5cf6"/>
      <stop offset="100%" stop-color="#6d28d9"/>
    </linearGradient>
    <linearGradient id="accent" x1="0" y1="0" x2="1" y2="1">
      <stop offset="0%" stop-color="#22d3ee"/>
      <stop offset="100%" stop-color="#8b5cf6"/>
    </linearGradient>
    <linearGradient id="container1" x1="0" y1="0" x2="0" y2="1">
      <stop offset="0%" stop-color="#34d399"/>
      <stop offset="100%" stop-color="#22d3ee"/>
    </linearGradient>
    <linearGradient id="container2" x1="0" y1="0" x2="0" y2="1">
      <stop offset="0%" stop-color="#8b5cf6"/>
      <stop offset="100%" stop-color="#6d28d9"/>
    </linearGradient>
    <linearGradient id="container3" x1="0" y1="0" x2="0" y2="1">
      <stop offset="0%" stop-color="#22d3ee"/>
      <stop offset="100%" stop-color="#8b5cf6"/>
    </linearGradient>
  </defs>
  <!-- Ship hull -->
  <path d="M56 340 L100 420 L412 420 L456 340 L400 340 L400 160 L112 160 L112 340 Z" fill="url(#hull)" opacity="0.9"/>
  <!-- Water line accent -->
  <path d="M40 360 L80 440 L432 440 L472 360 Z" fill="url(#accent)" opacity="0.3"/>
  <!-- Container row 1 (bottom) -->
  <rect x="132" y="270" width="72" height="55" rx="4" fill="url(#container1)" opacity="0.9"/>
  <rect x="220" y="270" width="72" height="55" rx="4" fill="url(#container2)" opacity="0.9"/>
  <rect x="308" y="270" width="72" height="55" rx="4" fill="url(#container3)" opacity="0.9"/>
  <!-- Container row 2 (top) -->
  <rect x="132" y="200" width="72" height="55" rx="4" fill="url(#container2)" opacity="0.85"/>
  <rect x="220" y="200" width="72" height="55" rx="4" fill="url(#container3)" opacity="0.85"/>
  <rect x="308" y="200" width="72" height="55" rx="4" fill="url(#container1)" opacity="0.85"/>
  <!-- Container lines (door detail) -->
  <line x1="168" y1="275" x2="168" y2="320" stroke="#0f111a" stroke-width="2" opacity="0.4"/>
  <line x1="256" y1="275" x2="256" y2="320" stroke="#0f111a" stroke-width="2" opacity="0.4"/>
  <line x1="344" y1="275" x2="344" y2="320" stroke="#0f111a" stroke-width="2" opacity="0.4"/>
  <line x1="168" y1="205" x2="168" y2="250" stroke="#0f111a" stroke-width="2" opacity="0.4"/>
  <line x1="256" y1="205" x2="256" y2="250" stroke="#0f111a" stroke-width="2" opacity="0.4"/>
  <line x1="344" y1="205" x2="344" y2="250" stroke="#0f111a" stroke-width="2" opacity="0.4"/>
  <!-- Smokestack -->
  <rect x="340" y="120" width="28" height="44" rx="4" fill="#8b5cf6" opacity="0.8"/>
  <ellipse cx="354" cy="108" rx="18" ry="8" fill="#22d3ee" opacity="0.3"/>
  <!-- Wave lines -->
  <path d="M24 460 Q80 445 136 460 Q192 475 248 460 Q304 445 360 460 Q416 475 488 460" stroke="#22d3ee" stroke-width="3" fill="none" opacity="0.4"/>
  <path d="M40 480 Q96 465 152 480 Q208 495 264 480 Q320 465 376 480 Q432 495 496 480" stroke="#8b5cf6" stroke-width="2" fill="none" opacity="0.3"/>
</svg>
